<svg xmlns="http://www.w3.org/2000/svg" viewBox="0 0 32 32" fill="none">
  <rect width="32" height="32" rx="8" fill="#0c0f1c"/>
  <rect width="32" height="32" rx="8" stroke="#7a6118" stroke-width="1.5" fill="none"/>
  <path d="M8 10C8 9.448 8.448 9 9 9H15C15.552 9 16 9.448 16 10V22C16 22.552 15.552 23 15 23H9C8.448 23 8 22.552 8 22V10Z" stroke="#c9a227" stroke-width="1.5" stroke-linecap="round" stroke-linejoin="round"/>
  <path d="M16 10C16 9.448 16.448 9 17 9H23C23.552 9 24 9.448 24 10V22C24 22.552 23.552 23 23 23H17C16.448 23 16 22.552 16 22V10Z" stroke="#c9a227" stroke-width="1.5" stroke-linecap="round" stroke-linejoin="round"/>
  <path d="M16 10V22" stroke="#c9a227" stroke-width="1.5"/>
  <path d="M10 13H14M10 16H14M10 19H13" stroke="#c9a227" stroke-width="1" stroke-linecap="round" opacity="0.6"/>
  <path d="M18 13H22M18 16H22M18 19H21" stroke="#c9a227" stroke-width="1" stroke-linecap="round" opacity="0.6"/>
</svg>
